<svg width="306" height="42" viewBox="0 0 306 42" fill="none" xmlns="http://www.w3.org/2000/svg">
<path d="M63.1457 33.7976V31.2672C64.5916 33.6892 67.3389 34.2314 68.8934 34.2314C73.5204 34.2314 77.4607 30.2912 77.4607 24.5073C77.4607 18.9765 73.9181 14.7471 68.7126 14.7471C66.9413 14.7471 64.917 15.3616 63.6517 17.2775V7.95108H57.3618V33.7976H63.1457ZM63.5072 24.435C63.5072 21.8323 65.17 20.2418 67.3751 20.2418C69.4356 20.2418 71.1346 21.8323 71.1346 24.435C71.1346 27.0378 69.4356 28.7368 67.3751 28.7368C65.17 28.7368 63.5072 27.0739 63.5072 24.435Z" fill="#1C192F"/>
<path d="M93.2779 14.8917C92.9887 14.7832 92.591 14.7471 92.1211 14.7471C89.663 14.7471 87.8555 16.0846 86.8795 18.362V15.1809H80.6257V33.7976H86.9156V26.9655C86.9156 23.0614 88.6869 20.6394 91.868 20.6394C92.5187 20.6394 92.9887 20.7117 93.2779 20.8563V14.8917Z" fill="#1C192F"/>
<path d="M95.6996 33.7976H101.989V15.1809H95.6996V33.7976ZM95.4465 9.97543C95.4465 11.8552 96.8925 13.2288 98.8084 13.2288C100.724 13.2288 102.206 11.8552 102.206 9.97543C102.206 8.09568 100.724 6.72202 98.8084 6.72202C96.8925 6.72202 95.4465 8.09568 95.4465 9.97543Z" fill="#1C192F"/>
<path d="M110.622 24.5796L104.224 33.7976H111.2L114.237 28.8814L117.273 33.7976H124.25L117.852 24.5796L124.395 15.1809H117.237L114.237 20.3502L111.237 15.1809H104.079L110.622 24.5796Z" fill="#1C192F"/>
<path d="M131.642 18.8319H134.027V26.2786C134.027 30.6165 136.486 33.0024 140.534 33.0024C142.378 33.0024 143.788 32.6047 144.764 32.1348V26.8209C144.005 27.3631 143.101 27.5077 142.342 27.5077C141.185 27.5077 140.317 26.8209 140.317 25.2303V18.8319H144.258V13.9518H140.317V8.92711H134.208V13.9518H131.642V18.8319Z" fill="#4A3AFF"/>
<path d="M164.101 24.7604C164.282 24.182 164.462 23.0614 164.462 22.0854C164.462 16.9883 160.847 13.518 155.534 13.518C150.039 13.518 145.846 17.7836 145.846 23.2783C145.846 28.7729 149.93 33.0024 156.293 33.0024C159.438 33.0024 161.896 32.2071 164.354 30.002L161.173 26.0256C160.269 26.8932 158.787 27.7608 156.763 27.7608C154.63 27.7608 152.605 26.857 152.316 24.7604H164.101ZM155.389 18.5066C157.016 18.5066 158.281 19.5188 158.389 21.1093V21.1455H152.208C152.316 19.4465 153.762 18.5066 155.389 18.5066Z" fill="#4A3AFF"/>
<path d="M167.554 13.9518V32.5686H173.844V22.7722C173.844 20.4586 175.037 19.0127 176.808 19.0127C178.688 19.0127 179.7 20.1695 179.7 22.3384V32.5686H185.99V22.7722C185.99 20.4586 187.255 19.0127 188.954 19.0127C190.834 19.0127 191.846 20.1695 191.846 22.3384V32.5686H198.136V21.2178C198.136 16.41 195.461 13.518 190.942 13.518C187.797 13.518 186.098 14.9278 184.833 16.5546C183.568 14.5664 181.544 13.518 178.796 13.518C176.591 13.518 174.82 14.2772 173.555 16.1569V13.9518H167.554Z" fill="#4A3AFF"/>
<path d="M202.397 39.7984H208.687V30.7611C209.88 32.4963 211.976 33.0024 213.748 33.0024C218.953 33.0024 222.496 28.7729 222.496 23.2421C222.496 17.4583 218.447 13.518 213.82 13.518C212.302 13.518 209.735 14.0603 208.181 16.4823V13.9518H202.397V39.7984ZM208.542 23.3144C208.542 20.6755 210.205 19.0127 212.41 19.0127C214.471 19.0127 216.17 20.7117 216.17 23.3144C216.17 25.9172 214.471 27.5077 212.41 27.5077C210.205 27.5077 208.542 25.9172 208.542 23.3144Z" fill="#4A3AFF"/>
<path d="M225.444 27.0016C225.444 30.9057 227.685 33.0024 231.589 33.0024C232.854 33.0024 233.83 32.7855 234.517 32.4601V27.3993C234.047 27.58 233.614 27.6162 233.288 27.6162C231.842 27.6162 231.734 26.7124 231.734 25.8449V6.72202H225.444V27.0016Z" fill="#4A3AFF"/>
<path d="M242.294 33.0024C244.752 33.0024 246.379 31.9179 247.102 30.5081V32.5686H252.922V20.9286C252.922 16.3015 249.74 13.518 244.354 13.518C240.703 13.518 237.703 15.1086 236.112 17.1329L239.402 21.0732C240.378 19.9526 241.896 18.8681 244.029 18.8681C245.583 18.8681 246.921 19.4103 246.921 20.9647V21.0009L242.113 21.9408C238.209 22.7722 236.04 24.6519 236.04 27.3993C236.04 30.6888 238.679 33.0024 242.294 33.0024ZM246.921 24.7965V25.0857C246.921 27.1462 245.764 28.4837 243.776 28.4837C242.655 28.4837 242.041 27.9053 242.041 27.0016C242.041 26.0979 242.764 25.628 243.884 25.3749L246.921 24.7965Z" fill="#4A3AFF"/>
<path d="M255.163 18.8319H257.548V26.2786C257.548 30.6165 260.007 33.0024 264.055 33.0024C265.899 33.0024 267.309 32.6047 268.285 32.1348V26.8209C267.526 27.3631 266.622 27.5077 265.863 27.5077C264.706 27.5077 263.838 26.8209 263.838 25.2303V18.8319H267.779V13.9518H263.838V8.92711H257.729V13.9518H255.163V18.8319Z" fill="#4A3AFF"/>
<path d="M287.622 24.7604C287.803 24.182 287.983 23.0614 287.983 22.0854C287.983 16.9883 284.368 13.518 279.055 13.518C273.56 13.518 269.367 17.7836 269.367 23.2783C269.367 28.7729 273.451 33.0024 279.814 33.0024C282.959 33.0024 285.417 32.2071 287.875 30.002L284.694 26.0256C283.79 26.8932 282.308 27.7608 280.284 27.7608C278.151 27.7608 276.126 26.857 275.837 24.7604H287.622ZM278.91 18.5066C280.537 18.5066 281.802 19.5188 281.91 21.1093V21.1455H275.729C275.837 19.4465 277.283 18.5066 278.91 18.5066Z" fill="#4A3AFF"/>
<path d="M297.509 33.0024C302.137 33.0024 305.245 30.4358 305.245 27.1101C305.245 23.4229 302.39 22.4468 299.462 21.2901C296.823 20.1695 295.702 19.9887 295.702 19.3019C295.702 18.615 296.533 18.2174 297.509 18.2174C299.245 18.2174 300.221 19.0488 300.835 20.0972L304.739 17.2775C303.582 15.0724 300.871 13.518 297.69 13.518C293.497 13.518 289.99 15.5424 289.99 19.2657C289.99 22.2661 292.051 23.7482 295.702 25.0496C298.269 25.9533 299.534 26.2786 299.534 27.2547C299.534 27.9415 298.847 28.303 297.582 28.303C295.702 28.303 294.256 27.1462 293.388 25.6641L289.376 28.7368C290.93 31.4841 294.039 33.0024 297.509 33.0024Z" fill="#4A3AFF"/>
<path fill-rule="evenodd" clip-rule="evenodd" d="M35.3387 12.4115C38.5804 12.4115 41.2082 9.78365 41.2082 6.54201C41.2082 3.30038 38.5804 0.672516 35.3387 0.672516C32.0971 0.672516 29.4692 3.30038 29.4692 6.54201C29.4692 9.78365 32.0971 12.4115 35.3387 12.4115Z" fill="#8055FA"/>
<path fill-rule="evenodd" clip-rule="evenodd" d="M35.3387 26.4943C38.5804 26.4943 41.2082 23.8667 41.2082 20.6255C41.2082 17.3843 38.5804 14.7568 35.3387 14.7568C32.0971 14.7568 29.4692 17.3843 29.4692 20.6255C29.4692 23.8667 32.0971 26.4943 35.3387 26.4943Z" fill="#7550FB"/>
<path fill-rule="evenodd" clip-rule="evenodd" d="M35.3387 41.1025C38.5804 41.1025 41.2082 38.4746 41.2082 35.233C41.2082 31.9914 38.5804 29.3635 35.3387 29.3635C32.0971 29.3635 29.4692 31.9914 29.4692 35.233C29.4692 38.4746 32.0971 41.1025 35.3387 41.1025Z" fill="#6A4AFC"/>
<path fill-rule="evenodd" clip-rule="evenodd" d="M20.731 26.4941C23.9722 26.4941 26.5997 23.8666 26.5997 20.6254C26.5997 17.3842 23.9722 14.7567 20.731 14.7567C17.4898 14.7567 14.8623 17.3842 14.8623 20.6254C14.8623 23.8666 17.4898 26.4941 20.731 26.4941Z" fill="#6045FD"/>
<path fill-rule="evenodd" clip-rule="evenodd" d="M20.7305 41.1024C23.9717 41.1024 26.5992 38.4745 26.5992 35.2329C26.5992 31.9913 23.9717 29.3634 20.7305 29.3634C17.4893 29.3634 14.8618 31.9913 14.8618 35.2329C14.8618 38.4745 17.4893 41.1024 20.7305 41.1024Z" fill="#553FFE"/>
<path fill-rule="evenodd" clip-rule="evenodd" d="M6.64684 41.1025C9.88848 41.1025 12.5163 38.4746 12.5163 35.233C12.5163 31.9913 9.88848 29.3635 6.64684 29.3635C3.40521 29.3635 0.777344 31.9913 0.777344 35.233C0.777344 38.4746 3.40521 41.1025 6.64684 41.1025Z" fill="#4A3AFF"/>
</svg>
