<svg width="80" height="80" viewBox="0 0 80 80" fill="none" xmlns="http://www.w3.org/2000/svg">
<g clip-path="url(#clip0_2032_61183)">
<rect width="80" height="80" fill="white"/>
<rect width="80" height="80" fill="white"/>
<path fill-rule="evenodd" clip-rule="evenodd" d="M56.2891 29.6243C59.822 29.6243 62.686 26.7596 62.686 23.2258C62.686 19.6921 59.822 16.8274 56.2891 16.8274C52.7563 16.8274 49.8923 19.6921 49.8923 23.2258C49.8923 26.7596 52.7563 29.6243 56.2891 29.6243Z" fill="#FF2D46"/>
<path fill-rule="evenodd" clip-rule="evenodd" d="M56.2891 46.3985C59.822 46.3985 62.686 43.5339 62.686 40.0002C62.686 36.4663 59.822 33.6017 56.2891 33.6017C52.7563 33.6017 49.8923 36.4663 49.8923 40.0002C49.8923 43.5339 52.7563 46.3985 56.2891 46.3985Z" fill="#D53D5C"/>
<path fill-rule="evenodd" clip-rule="evenodd" d="M56.2891 63.1728C59.822 63.1728 62.686 60.3082 62.686 56.7744C62.686 53.2406 59.822 50.3759 56.2891 50.3759C52.7563 50.3759 49.8923 53.2406 49.8923 56.7744C49.8923 60.3082 52.7563 63.1728 56.2891 63.1728Z" fill="#815EAD"/>
<path fill-rule="evenodd" clip-rule="evenodd" d="M40 46.3885C43.533 46.3885 46.3969 43.5261 46.3969 39.9952C46.3969 36.4641 43.533 33.6017 40 33.6017C36.4672 33.6017 33.6033 36.4641 33.6033 39.9952C33.6033 43.5261 36.4672 46.3885 40 46.3885Z" fill="#AB4D85"/>
<path fill-rule="evenodd" clip-rule="evenodd" d="M40 63.1726C43.533 63.1726 46.3969 60.308 46.3969 56.7742C46.3969 53.2405 43.533 50.3757 40 50.3757C36.4672 50.3757 33.6033 53.2405 33.6033 56.7742C33.6033 60.308 36.4672 63.1726 40 63.1726Z" fill="#576ED6"/>
<path fill-rule="evenodd" clip-rule="evenodd" d="M23.7105 63.1728C27.2434 63.1728 30.1073 60.3082 30.1073 56.7744C30.1073 53.2406 27.2434 50.3759 23.7105 50.3759C20.1777 50.3759 17.3137 53.2406 17.3137 56.7744C17.3137 60.3082 20.1777 63.1728 23.7105 63.1728Z" fill="#2388FF"/>
</g>
<defs>
<clipPath id="clip0_2032_61183">
<rect width="80" height="80" fill="white"/>
</clipPath>
</defs>
</svg>
