<svg width="48" height="48" xmlns="http://www.w3.org/2000/svg">

 <g>
  <title>Layer 1</title>
  <path fill="#ffffff" id="svg_1" d="m14.7,22.3q1.05,0 1.75,-0.7t0.7,-1.75q0,-1.05 -0.7,-1.75t-1.75,-0.7q-1.05,0 -1.75,0.7t-0.7,1.75q0,1.05 0.7,1.75t1.75,0.7zm9.45,0q1.05,0 1.75,-0.7t0.7,-1.75q0,-1.05 -0.7,-1.75t-1.75,-0.7q-1.05,0 -1.75,0.7t-0.7,1.75q0,1.05 0.7,1.75t1.75,0.7zm9.1,0q1.05,0 1.75,-0.7t0.7,-1.75q0,-1.05 -0.7,-1.75t-1.75,-0.7q-1.05,0 -1.75,0.7t-0.7,1.75q0,1.05 0.7,1.75t1.75,0.7zm-30.5,22.95l0,-37.8q0,-1.9 1.375,-3.325q1.375,-1.425 3.325,-1.425l33.1,0q1.9,0 3.325,1.425q1.425,1.425 1.425,3.325l0,25.1q0,1.9 -1.425,3.3t-3.325,1.4l-29.8,0l-8,8zm4.7,-10.3l2.4,-2.4l30.7,0l0,-25.1l-33.1,0l0,27.5zm0,-27.5l0,27.5l0,-27.5z"/>
 </g>
</svg>