<svg width="48" height="48" xmlns="http://www.w3.org/2000/svg">

 <g>
  <title>Layer 1</title>
  <path fill="#ffffff" id="svg_1" d="m21.95,26l0,-4.2l4.1,0l0,4.2l-4.1,0zm-4.2,4.15l0,-4.15l4.2,0l0,4.15l-4.2,0zm8.3,0l0,-4.15l4.15,0l0,4.15l-4.15,0zm4.15,-4.15l0,-4.2l4.2,0l0,4.2l-4.2,0zm-16.6,0l0,-4.2l4.15,0l0,4.2l-4.15,0zm-4.15,17.25q-2,0 -3.35,-1.35t-1.35,-3.35l0,-29.1q0,-2 1.35,-3.375t3.35,-1.375l29.1,0q2,0 3.375,1.375t1.375,3.375l0,29.1q0,2 -1.375,3.35t-3.375,1.35l-29.1,0zm4.15,-4.7l4.15,0l0,-4.2l-4.15,0l0,4.2zm8.35,0l4.1,0l0,-4.2l-4.1,0l0,4.2zm16.6,0l0,-4.2l0,4.2zm-29.1,-4.2l4.15,0l0,-4.2l4.15,0l0,4.2l4.15,0l0,-4.2l4.15,0l0,4.2l4.15,0l0,-4.2l4.2,0l0,4.2l4.15,0l0,-4.2l-4.15,0l0,-4.15l4.15,0l0,-16.55l-29.1,0l0,16.55l4.15,0l0,4.15l-4.15,0l0,4.2zm0,4.25l0,-29.15l0,29.15zm29.1,-12.6l0,4.15l0,-4.15zm-8.35,8.35l0,4.2l4.2,0l0,-4.2l-4.2,0z"/>
 </g>
</svg>