<svg width="37" height="26" viewBox="0 0 37 26" fill="none" xmlns="http://www.w3.org/2000/svg">
<g clip-path="url(#clip0_3668_20253)">
<path d="M8.62599 0C3.00035 5.10058 0 10.5012 0 15.4518C0 21.5275 3.30038 25.878 8.02592 25.878C12.1514 25.878 15.6018 22.3526 15.6018 18.0771C15.6018 13.8766 12.2264 10.4262 8.17594 10.4262C8.85102 7.95091 10.5762 5.40062 12.9765 3.30038L8.62599 0ZM29.6284 0C24.0028 5.10058 21.0024 10.5012 21.0024 15.4518C21.0024 21.5275 24.3028 25.878 29.0283 25.878C33.1538 25.878 36.6042 22.3526 36.6042 18.0771C36.6042 13.8766 33.2288 10.4262 29.1784 10.4262C29.8534 7.95091 31.5786 5.40062 33.9789 3.30038L29.6284 0Z" fill="#4A3AFF"/>
</g>
<defs>
<clipPath id="clip0_3668_20253">
<rect width="37" height="26" fill="white"/>
</clipPath>
</defs>
</svg>
