<svg width="70" height="70" viewBox="0 0 70 70" fill="none" xmlns="http://www.w3.org/2000/svg">
<g clip-path="url(#clip0_5209_2745)">
<rect width="70" height="70" fill="white"/>
<rect x="0.181641" y="-0.226013" width="70.226" height="70.226" fill="#F3F3FC"/>
<g clip-path="url(#clip1_5209_2745)">
<path fill-rule="evenodd" clip-rule="evenodd" d="M35.2938 17.8718L39.5327 26.3475C40.299 27.8797 41.7972 28.9122 43.5018 29.0828L51.1512 29.8486L44.5486 36.4491C43.2807 37.7166 42.7895 39.5664 43.2616 41.296L45.681 50.1603L37.5297 46.0836C36.1228 45.38 34.4667 45.3804 33.0601 46.0846L24.9122 50.1638L27.3298 41.2942C27.801 39.5657 27.3101 37.7172 26.0435 36.4501L19.4384 29.843L27.0885 29.0772C28.7932 28.9065 30.2914 27.874 31.0577 26.3418L35.2938 17.8718ZM38.4362 14.5854C38.1462 14.0025 37.6997 13.5119 37.1467 13.1682C36.5929 12.8239 35.954 12.6407 35.3019 12.6392C34.6497 12.6377 34.01 12.8179 33.4546 13.1596C32.8991 13.5013 32.4498 13.991 32.1571 14.5738L27.2292 24.4271C27.1197 24.646 26.9057 24.7935 26.6621 24.8178L17.4024 25.7448L17.3992 25.7451C16.7384 25.8104 16.1097 26.0619 15.586 26.4702C15.0615 26.8793 14.664 27.4289 14.4398 28.0551C14.2156 28.6814 14.1739 29.3584 14.3197 30.0074C14.4654 30.6564 14.7925 31.2506 15.263 31.7208L23.0161 39.4765C23.1971 39.6575 23.2672 39.9215 23.1999 40.1685L20.3303 50.6962C20.1515 51.3495 20.1651 52.0424 20.3702 52.6878C20.5756 53.3339 20.9637 53.9067 21.4875 54.3369C22.0114 54.7672 22.6486 55.0366 23.3223 55.1126C23.9959 55.1885 24.6772 55.0677 25.2837 54.7649L34.9764 49.9122C35.1774 49.8116 35.414 49.8116 35.615 49.9121L45.3055 54.7586L45.3104 54.7611C45.9165 55.0623 46.5968 55.182 47.2694 55.1058C47.9419 55.0295 48.5782 54.7606 49.1015 54.3314C49.6249 53.9021 50.0131 53.3308 50.2195 52.6861C50.4259 52.0415 50.4416 51.3509 50.2648 50.6975L50.2636 50.693L47.3911 40.1688C47.3237 39.9218 47.3939 39.6575 47.575 39.4764L55.3274 31.7265C55.7978 31.2563 56.1249 30.662 56.2707 30.013C56.4164 29.3641 56.3748 28.687 56.1506 28.0608C55.9264 27.4345 55.5288 26.8849 55.0043 26.4759C54.4806 26.0675 53.8518 25.8161 53.191 25.7508L53.1879 25.7505L43.9282 24.8235C43.6847 24.7991 43.4706 24.6516 43.3612 24.4327L38.4377 14.5883L38.4362 14.5854Z" fill="#4A3AFF"/>
</g>
</g>
<defs>
<clipPath id="clip0_5209_2745">
<rect width="70" height="70" fill="white"/>
</clipPath>
<clipPath id="clip1_5209_2745">
<rect width="42.8037" height="42.8037" fill="white" transform="translate(13.8926 12.4851)"/>
</clipPath>
</defs>
</svg>
